<svg width="106" height="26" viewBox="0 0 106 26" fill="none" xmlns="http://www.w3.org/2000/svg">
<path d="M0 0H3.02636V3.72948H0V0ZM3.02636 25.6029H0V7.0619H3.02636V25.6029Z" fill="black"/>
<path d="M12.9218 0L20.9311 21.519L28.9756 0H33.5996V25.6029H30.3973V4.30379H30.3269L22.388 25.6029H19.5024L11.5705 4.30379H11.5001V25.6029H8.29077V0H12.9218Z" fill="black"/>
<path d="M52.8557 26C52.0745 26 51.4481 25.7802 50.9836 25.3335C50.5191 24.8939 50.2868 24.1707 50.2868 23.1639C49.4563 24.1707 48.4921 24.8939 47.3871 25.3335C46.2821 25.7731 45.0927 26 43.8118 26C42.9813 26 42.2001 25.9078 41.4611 25.7306C40.7221 25.5533 40.0816 25.2555 39.5186 24.8372C38.9626 24.4189 38.5192 23.88 38.2025 23.2206C37.8787 22.5612 37.7239 21.7671 37.7239 20.8383C37.7239 19.7889 37.8998 18.9239 38.2588 18.2574C38.6107 17.5909 39.0822 17.045 39.6664 16.6267C40.2505 16.2083 40.9121 15.8893 41.6581 15.6766C42.4042 15.4639 43.1713 15.2795 43.9526 15.1377C44.783 14.9746 45.5713 14.847 46.3173 14.7619C47.0634 14.6768 47.7249 14.5634 48.295 14.4074C48.8651 14.2514 49.3155 14.0245 49.6463 13.7267C49.9771 13.429 50.146 12.9894 50.146 12.4151C50.146 11.7486 50.0194 11.2097 49.773 10.7985C49.5267 10.3943 49.2029 10.0824 48.8088 9.86256C48.4147 9.64985 47.9783 9.50095 47.4927 9.43005C47.0071 9.35915 46.5285 9.32369 46.0499 9.32369C44.769 9.32369 43.6992 9.57185 42.8476 10.0611C41.996 10.5503 41.5315 11.4791 41.4611 12.8405H38.4347C38.484 11.6918 38.7162 10.7276 39.1456 9.93346C39.5749 9.14644 40.145 8.50831 40.8558 8.012C41.5667 7.52277 42.3901 7.16825 43.3121 6.95555C44.2341 6.74284 45.2124 6.62939 46.2329 6.62939C47.0634 6.62939 47.8868 6.68612 48.7103 6.80665C49.5267 6.92719 50.2727 7.16825 50.9343 7.54404C51.5959 7.91273 52.1308 8.43741 52.539 9.1039C52.9401 9.77038 53.1442 10.6425 53.1442 11.7202V21.2566C53.1442 21.9727 53.1865 22.4974 53.2709 22.8377C53.3554 23.171 53.6299 23.3411 54.1085 23.3411C54.3689 23.3411 54.6785 23.2844 55.0375 23.1639V25.532C54.5096 25.844 53.7847 26 52.8557 26ZM48.6258 16.655C48.0065 16.7897 47.359 16.8961 46.6833 16.9812C46.0077 17.0663 45.325 17.1584 44.6352 17.2648C43.9455 17.3711 43.3332 17.5484 42.7842 17.7824C42.2353 18.0234 41.7919 18.3638 41.447 18.8034C41.1021 19.243 40.9332 19.8527 40.9332 20.6114C40.9332 21.1148 41.0318 21.5402 41.2359 21.8876C41.44 22.2351 41.7004 22.5116 42.0171 22.7314C42.3338 22.9441 42.7139 23.1001 43.1573 23.1993C43.5936 23.2986 44.044 23.3411 44.4945 23.3411C45.4939 23.3411 46.3455 23.2064 47.0563 22.9299C47.7672 22.6534 48.3513 22.306 48.8018 21.8876C49.2522 21.4693 49.583 21.0155 49.8012 20.5263C50.0123 20.0371 50.1249 19.5762 50.1249 19.1437V16.024C49.7378 16.3147 49.2381 16.5274 48.6258 16.655Z" fill="black"/>
<path d="M60.1541 21.4625C60.4426 21.9304 60.8156 22.2991 61.2731 22.5757C61.7376 22.8522 62.2585 23.0507 62.8426 23.1641C63.4268 23.2847 64.025 23.3414 64.6373 23.3414C65.1089 23.3414 65.6086 23.306 66.1294 23.2351C66.6502 23.1641 67.1288 23.0294 67.5722 22.838C68.0085 22.6466 68.3745 22.3629 68.656 21.9943C68.9376 21.6256 69.0854 21.1505 69.0854 20.5762C69.0854 19.7892 68.7898 19.1865 68.1986 18.7824C67.6074 18.3782 66.8613 18.045 65.9745 17.7968C65.0877 17.5487 64.1165 17.3218 63.0749 17.1162C62.0332 16.9105 61.062 16.6269 60.1752 16.2582C59.2884 15.8895 58.5424 15.3649 57.9512 14.6984C57.36 14.0319 57.0644 13.096 57.0644 11.8977C57.0644 10.9618 57.2685 10.1677 57.6837 9.49412C58.099 8.82763 58.6339 8.28168 59.2884 7.86336C59.9429 7.44503 60.6749 7.13306 61.4983 6.92744C62.3148 6.72182 63.1312 6.62256 63.9405 6.62256C64.9822 6.62256 65.9464 6.71473 66.8261 6.89199C67.7059 7.06925 68.4801 7.38122 69.1557 7.8279C69.8314 8.27459 70.3733 8.87017 70.7745 9.62174C71.1757 10.3733 71.4149 11.3163 71.4853 12.4366H68.459C68.4097 11.841 68.2549 11.3447 67.9945 10.9476C67.7341 10.5506 67.4033 10.2386 66.9951 9.99752C66.5939 9.75646 66.1435 9.58629 65.6578 9.47994C65.1722 9.37358 64.6795 9.31686 64.1798 9.31686C63.7294 9.31686 63.2719 9.35231 62.8074 9.42321C62.3429 9.49412 61.9206 9.62174 61.5406 9.799C61.1605 9.97625 60.8508 10.2173 60.6115 10.5151C60.3723 10.8129 60.2526 11.2029 60.2526 11.6779C60.2526 12.2026 60.4356 12.6422 60.8016 12.9896C61.1676 13.337 61.6391 13.6207 62.2092 13.8475C62.7793 14.0744 63.4197 14.2659 64.1306 14.4219C64.8414 14.5778 65.5523 14.7409 66.2631 14.904C67.0232 15.0742 67.7622 15.2727 68.4871 15.5138C69.212 15.7548 69.8525 16.0668 70.4085 16.4638C70.9645 16.8609 71.4149 17.3572 71.7598 17.9528C72.1047 18.5484 72.2736 19.2929 72.2736 20.1791C72.2736 21.3065 72.0413 22.2353 71.5768 22.9798C71.1123 23.7243 70.507 24.3199 69.761 24.7736C69.015 25.2274 68.1704 25.5465 67.2343 25.7237C66.2983 25.901 65.3693 25.9932 64.4402 25.9932C63.4197 25.9932 62.4485 25.8868 61.5195 25.6741C60.5904 25.4614 59.774 25.1069 59.0632 24.6177C58.3523 24.1284 57.7822 23.4832 57.3529 22.682C56.9236 21.8808 56.6914 20.9094 56.6421 19.7608H59.6684C59.7177 20.4273 59.8726 20.9945 60.1541 21.4625Z" fill="black"/>
<path d="M78.8401 0V15.1661L87.2435 7.0619H91.3045L84.006 13.8047L91.8323 25.6029H87.9895L81.6905 15.9176L78.8401 18.5765V25.6029H75.8137V0H78.8401Z" fill="black"/>
<path d="M98.8281 2.14847H97.1531V6.79259H96.0903V2.14847H94.4153V1.27637H98.8281V2.14847ZM102.988 5.1831L104.473 1.27637H106V6.79259H105.001V2.48171H104.972L103.34 6.79259H102.594L100.961 2.48171H100.933V6.79259H99.9331V1.27637H101.474L102.988 5.1831Z" fill="black"/>
</svg>
