<svg width="55" height="51" viewBox="0 0 55 51" fill="none" xmlns="http://www.w3.org/2000/svg">
<g clip-path="url(#clip0)">
<g clip-path="url(#clip1)">
<path d="M12.9167 19.2663C12.9167 25.0421 12.9268 30.8179 12.91 36.5904C12.9067 37.6369 12.0614 38.4955 11.0116 38.4989C9.12658 38.5089 7.2382 38.4687 5.35319 38.5391C1.81458 38.6766 0.409203 41.3734 2.28751 44.382C3.59227 46.4716 5.5276 47.4946 7.96605 47.5081C12.199 47.5349 21.2853 47.4443 21.5402 47.5416C21.6173 47.5718 21.6911 47.602 21.7649 47.6355C22.3653 47.9072 22.2379 48.8329 21.5804 48.8564C21.5771 48.8564 21.5704 48.8564 21.567 48.8564C18.3806 48.9101 15.1942 48.8833 12.0111 48.8799C10.5454 48.8799 9.07627 48.89 7.61051 48.8631C3.18642 48.7826 0.026833 45.623 0.0167706 41.1721C-0.00670825 30.0196 -0.00335413 18.8605 0.0134165 7.7013C0.0201248 3.54218 3.334 0.147807 7.49312 0.0237042C8.72408 -0.0131912 9.95505 0.00357942 11.1894 0.0136418C12.7256 0.0237042 12.9134 0.214889 12.9167 1.77456C12.9201 7.60403 12.9167 13.4369 12.9167 19.2663ZM1.47246 38.2742C4.18595 36.6407 6.9464 37.0398 9.64982 37.0063C11.4309 36.9862 11.4409 36.9962 11.4443 35.1783C11.4476 25.2467 11.4476 15.3152 11.4476 5.38024C11.4476 1.35865 11.4476 1.35865 7.42268 1.52635C4.03501 1.66723 1.40202 4.33711 1.39867 7.71136C1.3819 17.435 1.39532 27.1552 1.39867 36.8788C1.39867 37.2478 1.43557 37.6134 1.47246 38.2742Z" fill="black"/>
<path d="M54.6622 28.1174C54.6622 33.9871 54.6655 39.8568 54.6622 45.7266C54.6622 47.4673 53.2534 48.8828 51.5127 48.8861C48.1619 48.8962 44.8111 48.8861 41.457 48.8861C41.2893 48.8861 41.0981 48.9331 40.9572 48.8694C40.8868 48.8358 40.8163 48.8023 40.7493 48.7687C40.2629 48.5239 40.2562 47.796 40.7627 47.5982C40.8231 47.5747 40.8834 47.5613 40.9438 47.5613C43.9592 47.5009 46.9745 47.5277 49.9932 47.5277C53.126 47.5277 53.2367 47.5277 53.2635 44.4386C53.3306 36.1807 53.297 27.9195 53.3004 19.6583C53.3038 16.767 53.3172 13.8724 53.3038 10.9812C53.297 9.01564 53.0723 8.79762 51.1403 8.79762C39.5787 8.79427 28.0136 8.80098 16.452 8.78421C15.7241 8.78421 14.5401 9.12298 14.577 7.96916C14.6106 6.94615 15.7644 7.31175 16.4419 7.30839C27.6682 7.28827 38.8978 7.29833 50.124 7.30168C50.6641 7.30168 51.2007 7.29498 51.7407 7.31175C53.3574 7.35535 54.6521 8.66011 54.6588 10.2768C54.6689 16.2237 54.6622 22.1705 54.6622 28.1174Z" fill="black"/>
<path d="M26.1791 46.5585C26.1791 46.0688 26.2059 45.2638 26.2193 44.7741C26.2562 43.2077 25.7967 41.8627 24.7435 40.4942C22.6505 37.774 22.6841 34.6681 24.4249 31.7534C26.1355 28.8856 28.802 27.507 32.1595 27.8357C35.678 28.1779 38.0225 30.13 39.1361 33.4807C40.1389 36.5028 39.3474 39.1492 37.345 41.5474C36.9525 42.017 36.6641 42.718 36.6406 43.3251C36.5534 45.5455 36.6238 47.7727 36.5634 49.9931C36.5634 49.9965 36.5634 50.0032 36.5634 50.0065C36.5299 50.8048 35.517 51.2207 34.93 50.6807C34.9266 50.6774 34.9233 50.674 34.9199 50.6706C33.9741 49.7818 33.0718 48.8426 32.1729 47.9035C31.6228 47.3266 31.1667 47.3065 30.6065 47.9236C29.7344 48.8829 28.8221 49.812 27.8763 50.7008C27.8729 50.7042 27.8696 50.7075 27.8662 50.7075C27.3195 51.2107 26.3971 50.9021 26.2294 50.1776C26.216 50.1172 26.2059 50.0568 26.2026 49.9998C26.1288 48.8594 26.1824 47.7056 26.1791 46.5585ZM24.7234 35.8689C24.7167 39.6658 27.6012 42.5838 31.3746 42.6006C35.1447 42.6174 38.0829 39.6959 38.0862 35.9225C38.0896 32.2733 35.1044 29.2411 31.4819 29.2143C27.7421 29.1875 24.7301 32.1559 24.7234 35.8689ZM35.1212 43.2748C32.5955 44.3414 30.1873 44.3079 27.6951 43.2882C27.6951 45.1665 27.7522 48.5206 27.7522 48.8561C28.423 48.1852 29.3252 47.2092 29.9793 46.5182C31.3344 45.0894 31.4316 45.1129 32.8538 46.5249C33.5313 47.1991 34.2189 47.8632 35.1212 48.742C35.1212 46.7228 35.1212 45.1263 35.1212 43.2748Z" fill="black"/>
<path d="M29.6101 10.8067C34.051 10.8067 38.4918 10.8403 42.9293 10.7866C44.2307 10.7732 44.7674 11.2193 44.8412 12.628C44.9854 15.4052 47.0415 17.6559 49.7315 18.3468C50.8719 18.6386 51.2308 19.1887 51.204 20.3526C51.0866 25.5615 51.1436 30.7671 51.2073 35.9761C51.2207 37.0528 50.8685 37.5458 49.8086 37.8309C46.8402 38.6292 45.0491 40.8798 44.8043 44.0193C44.7271 45.0255 44.3045 45.4515 43.305 45.4012C42.4262 45.3576 41.5407 45.4314 40.6686 45.3475C40.6049 45.3408 40.5445 45.3173 40.4808 45.2838C40.0884 45.0658 40.0448 44.4922 40.3869 44.2004C40.4708 44.13 40.5479 44.0864 40.6183 44.0998C42.9394 44.5392 43.3721 43.0634 43.949 41.2857C44.6768 39.0451 46.3874 37.4888 48.6313 36.6738C49.9763 36.1841 49.8791 35.4093 49.8791 33.4236C49.8791 29.7341 49.8791 26.7154 49.6745 22.7541C49.5772 20.8523 49.9361 20.0205 48.6313 19.5241C45.9011 18.4776 44.1301 16.492 43.5264 13.6141C43.2882 12.4805 42.7817 12.1417 41.6648 12.145C33.2024 12.1819 24.7399 12.1752 16.2808 12.1484C15.6536 12.145 14.5702 12.5375 14.5635 11.501C14.5601 10.4881 15.6335 10.8168 16.2808 10.8135C20.7317 10.7933 25.1726 10.8067 29.6101 10.8067Z" fill="black"/>
<path d="M29.2649 18.4442C33.5749 18.4442 37.885 18.4442 42.195 18.4442C42.403 18.4442 42.6445 18.3771 42.8156 18.4576C42.8927 18.4945 42.9665 18.5314 43.0403 18.5683C43.6776 18.8936 43.4931 19.8932 42.7787 19.9099C42.7753 19.9099 42.7686 19.9099 42.7652 19.9099C33.6856 19.9535 24.606 19.9569 15.5264 19.9133C15.4895 19.9133 15.4526 19.9099 15.4123 19.9032C14.6744 19.7791 14.6711 18.6689 15.3989 18.5012C15.4593 18.4878 15.5197 18.4811 15.58 18.4777C20.1417 18.424 24.6999 18.4475 29.2615 18.4475C29.2649 18.4475 29.2649 18.4475 29.2649 18.4442Z" fill="black"/>
<path d="M29.154 24.7431C24.797 24.7431 20.4433 24.7431 16.0863 24.7397C15.667 24.7397 15.231 24.7833 14.8386 24.6693C14.805 24.6592 14.7749 24.6458 14.7447 24.6324C14.3153 24.4043 14.3019 23.7469 14.7212 23.4954C14.7514 23.4786 14.7849 23.4618 14.8185 23.4518C15.1606 23.3344 15.5631 23.3813 15.9387 23.3813C24.7769 23.378 33.6116 23.378 42.4498 23.378C42.6175 23.378 42.8154 23.3243 42.9462 23.3947C43.0401 23.445 43.134 23.4954 43.2279 23.549C43.7545 23.8509 43.5935 24.6894 42.9864 24.7062C42.9831 24.7062 42.9797 24.7062 42.973 24.7062C38.3678 24.7464 33.7592 24.733 29.154 24.733C29.154 24.7364 29.154 24.7397 29.154 24.7431Z" fill="black"/>
<path d="M17.5656 28.2083C18.4008 28.2083 19.2393 28.148 20.0644 28.2385C20.1047 28.2419 20.1416 28.2519 20.1818 28.2654C20.695 28.4532 20.7319 29.2179 20.2389 29.4561C20.1785 29.4863 20.1181 29.503 20.0577 29.5064C18.3941 29.5701 16.7237 29.5701 15.0567 29.5064C14.9963 29.503 14.936 29.4863 14.8756 29.4561C14.4194 29.2347 14.4127 28.5438 14.8588 28.3056C14.9259 28.2687 14.9963 28.2452 15.0668 28.2352C15.8919 28.148 16.7338 28.2083 17.5656 28.2083Z" fill="black"/>
<path d="M31.5051 40.0616C29.1538 40.0851 27.309 38.3242 27.2621 36.0199C27.2151 33.7022 29.1002 31.7937 31.4581 31.7702C33.6081 31.7468 35.4663 33.6452 35.5099 35.9092C35.5568 38.1297 33.7154 40.0382 31.5051 40.0616ZM31.438 38.559C32.9104 38.5422 34.0609 37.3783 34.0408 35.9294C34.0207 34.4938 32.8266 33.2863 31.4145 33.2762C29.9387 33.2662 28.6943 34.5374 28.748 36.0065C28.8016 37.489 29.9487 38.5758 31.438 38.559Z" fill="black"/>
</g>
</g>
<defs>
<clipPath id="clip0">
<rect width="54.9265" height="50.9559" fill="white"/>
</clipPath>
<clipPath id="clip1">
<rect width="54.6655" height="50.9559" fill="white"/>
</clipPath>
</defs>
</svg>
