<svg width="49" height="49" viewBox="0 0 49 49" fill="none" xmlns="http://www.w3.org/2000/svg">
<g clip-path="url(#clip0)">
<path d="M43.7327 26.2944C43.8453 26.1867 43.9086 26.1291 43.9687 26.0689C45.1265 24.9114 46.2818 23.7507 47.4465 22.5995C47.5699 22.4779 47.7382 22.3747 47.9046 22.3291C48.2146 22.2436 48.5353 22.4101 48.6891 22.685C48.8485 22.9705 48.8181 23.3138 48.5764 23.5626C48.0482 24.1078 47.5079 24.6416 46.9714 25.1786C46.2672 25.884 45.5649 26.5914 44.8538 27.2892C44.7178 27.4228 44.6931 27.5165 44.7969 27.6894C47.9539 32.9724 45.1784 39.7644 39.2174 41.3418C39.0155 41.395 38.9636 41.4811 38.9643 41.6793C38.9712 43.7531 38.9687 45.8263 38.9681 47.9001C38.9681 48.5118 38.696 48.7854 38.0887 48.7854C25.6826 48.7854 13.2772 48.7854 0.871187 48.7854C0.268885 48.786 0 48.5201 0 47.9223C0 33.8899 0 19.8576 0 5.82524C0 5.21164 0.263191 4.95265 0.885739 4.95265C3.598 4.95202 6.30962 4.95265 9.02188 4.95202C9.39453 4.95202 9.3572 4.99571 9.35973 4.60374C9.36099 4.4296 9.35973 4.25546 9.35973 4.08133C9.36036 3.43797 9.62735 3.16568 10.2632 3.16504C11.5127 3.16378 12.7616 3.16504 14.0111 3.16441C14.4774 3.16441 14.9443 3.15618 15.4106 3.16821C15.6004 3.17328 15.6807 3.11945 15.7314 2.92252C16.1622 1.22863 17.6401 0.0356269 19.33 -0.000467198C21.1464 -0.0390942 22.6718 1.04689 23.1861 2.74521C23.3133 3.16441 23.3133 3.16441 23.7479 3.16441C25.3929 3.16441 27.0372 3.16378 28.6821 3.16441C29.3331 3.16441 29.5906 3.4215 29.5913 4.06676C29.5919 4.27256 29.6033 4.47899 29.5881 4.68353C29.5729 4.88806 29.6368 4.95961 29.8519 4.95582C30.6029 4.94315 31.3539 4.95075 32.1055 4.95075C34.0978 4.95075 36.0907 4.95012 38.083 4.95075C38.6948 4.95075 38.9687 5.22367 38.9687 5.83094C38.9687 11.5927 38.9706 17.3544 38.963 23.1162C38.963 23.3562 39.0238 23.4512 39.2642 23.5145C40.9572 23.9603 42.4016 24.8329 43.6049 26.105C43.6479 26.1519 43.6764 26.2108 43.7327 26.2944ZM3.92446 26.8567C3.92446 32.2385 3.92446 37.6197 3.92509 43.0015C3.92509 43.3833 3.88017 43.3535 4.28634 43.3535C14.4148 43.3542 24.5426 43.3535 34.671 43.3535C34.726 43.3535 34.7823 43.3485 34.8367 43.3542C34.9949 43.3706 35.0417 43.2959 35.0398 43.1459C35.0341 42.6709 35.0272 42.196 35.043 41.7217C35.05 41.5178 34.9639 41.4634 34.7868 41.407C34.1636 41.2082 33.5239 41.0366 32.9343 40.7598C29.0301 38.9292 26.8834 34.6023 27.8875 30.4078C28.7631 26.749 31.1021 24.4371 34.7317 23.4531C34.9905 23.3828 35.0443 23.2815 35.043 23.0389C35.0348 20.7517 35.0379 18.4645 35.0379 16.1773C35.0379 14.3333 35.0373 12.4893 35.0392 10.6454C35.0392 10.4909 35.0411 10.3725 34.8235 10.3731C33.1551 10.3801 31.4867 10.3788 29.8184 10.3737C29.6457 10.3731 29.6039 10.4446 29.6077 10.6011C29.6153 10.9728 29.6102 11.3451 29.6102 11.7168C29.6096 12.4349 29.3565 12.6888 28.6416 12.6888C22.5376 12.6888 16.4343 12.6888 10.3302 12.6888C10.2594 12.6888 10.1879 12.6901 10.117 12.6882C9.66531 12.6742 9.36416 12.3703 9.36099 11.9182C9.35783 11.499 9.34708 11.0785 9.36542 10.6599C9.37555 10.4282 9.29899 10.3699 9.07313 10.3712C7.46804 10.3807 5.86296 10.3763 4.25787 10.3763C3.92446 10.3763 3.92382 10.3769 3.92382 10.7119C3.92446 16.0937 3.92446 21.4755 3.92446 26.8567ZM36.8619 33.1459C36.9334 33.0883 36.979 33.0585 37.0169 33.0205C38.8631 31.1753 40.7067 29.3269 42.5579 27.4867C42.7091 27.3367 42.6483 27.2562 42.5363 27.1429C40.3764 24.9621 37.7882 24.192 34.8323 24.9855C30.5706 26.1297 28.1829 30.582 29.5261 34.7777C30.8364 38.8728 35.1891 41.1062 39.261 39.779C43.3234 38.4549 45.4922 34.2648 44.2768 30.1634C44.1168 29.6239 43.8618 29.1122 43.6309 28.5392C43.5031 28.6576 43.4328 28.7177 43.3677 28.783C41.4096 30.7403 39.4527 32.6982 37.4946 34.6549C37.1017 35.0475 36.6848 35.0627 36.3096 34.6891C34.9981 33.3827 33.6897 32.0738 32.3832 30.7618C32.0486 30.4262 32.0397 29.962 32.3459 29.6619C32.649 29.3643 33.1102 29.3845 33.4474 29.7157C33.7574 30.0203 34.0636 30.3299 34.3705 30.6383C35.1955 31.4678 36.0198 32.2986 36.8619 33.1459ZM1.48171 47.3093C1.60698 47.3093 1.69239 47.3093 1.7778 47.3093C13.5822 47.3093 25.3865 47.3087 37.1915 47.3144C37.4237 47.3144 37.4813 47.2454 37.4794 47.0206C37.4699 45.485 37.4743 43.9501 37.4743 42.4145C37.4743 42.2245 37.468 42.0345 37.4762 41.8446C37.4826 41.6958 37.4364 41.6255 37.2751 41.6369C37.1017 41.6489 36.9265 41.6514 36.7537 41.6375C36.5722 41.6229 36.5241 41.6951 36.5266 41.8686C36.5348 42.5494 36.5304 43.2301 36.5298 43.9102C36.5291 44.5814 36.2653 44.8473 35.5985 44.8473C24.8532 44.8473 14.1086 44.8473 3.36328 44.8473C2.69644 44.8473 2.44274 44.5953 2.44274 43.9336C2.44274 32.5608 2.44274 21.1886 2.44274 9.81585C2.44274 9.14399 2.70214 8.88373 3.37403 8.88373C5.26382 8.8831 7.15361 8.88373 9.04276 8.8831C9.14272 8.8831 9.24332 8.87424 9.34201 8.8698C9.34201 8.04914 9.34201 7.2538 9.34201 6.43377C9.2313 6.43377 9.13829 6.43377 9.04529 6.43377C6.63355 6.43377 4.22244 6.43377 1.8107 6.43377C1.48171 6.43377 1.48171 6.43377 1.48171 6.76875C1.48171 20.1755 1.48171 33.5816 1.48171 46.9883C1.48171 47.0826 1.48171 47.1764 1.48171 47.3093ZM28.0944 4.6544C27.9659 4.6544 27.8641 4.6544 27.7616 4.6544C26.1015 4.6544 24.4413 4.6544 22.7818 4.6544C22.1365 4.6544 21.9012 4.43087 21.8632 3.78308C21.7841 2.43556 20.7339 1.45786 19.3926 1.48382C18.1425 1.50788 17.1384 2.54258 17.1049 3.8407C17.0916 4.36501 16.7968 4.65377 16.2653 4.6544C14.566 4.65566 12.866 4.65503 11.1666 4.65503C10.8503 4.65503 10.849 4.65567 10.8497 4.98178C10.8547 6.95999 10.8642 8.93756 10.8611 10.9158C10.8604 11.1393 10.9306 11.1906 11.1432 11.19C16.7082 11.1849 22.2732 11.1855 27.8381 11.1849C27.921 11.1849 28.0045 11.1754 28.0944 11.1697C28.0944 8.99138 28.0944 6.8422 28.0944 4.6544ZM37.4617 6.4458C37.3712 6.44074 37.3162 6.43504 37.2618 6.4344C34.7874 6.43377 32.3137 6.4363 29.8393 6.42997C29.6431 6.42934 29.5995 6.50153 29.602 6.67883C29.609 7.31143 29.6046 7.94466 29.6052 8.57788C29.6052 8.88373 29.6058 8.88437 29.9203 8.88437C31.7702 8.88437 33.6195 8.88437 35.4694 8.88437C36.3001 8.88437 36.5304 9.1117 36.5304 9.93489C36.5304 14.1522 36.5304 18.3695 36.5304 22.5862C36.5304 23.1814 36.5304 23.1814 37.1321 23.1966C37.1479 23.1972 37.1637 23.1966 37.1795 23.1972C37.4743 23.2086 37.4756 23.2086 37.4756 22.9091C37.4756 17.521 37.4756 12.1328 37.475 6.74469C37.4743 6.65097 37.4668 6.55788 37.4617 6.4458Z" fill="#1F1E1F"/>
<path d="M17.688 18.4376C15.3478 18.4376 13.0075 18.4383 10.6673 18.437C10.2427 18.437 9.96564 18.2686 9.85492 17.9507C9.70055 17.5081 9.96754 17.0496 10.4344 16.9616C10.504 16.9483 10.5762 16.947 10.647 16.947C15.3433 16.9464 20.0397 16.9458 24.7353 16.947C25.1966 16.947 25.4863 17.1674 25.5648 17.5676C25.6413 17.9551 25.3807 18.3452 24.9916 18.4161C24.884 18.4357 24.7714 18.437 24.6613 18.437C22.3369 18.4376 20.0124 18.4376 17.688 18.4376Z" fill="#1F1E1F"/>
<path d="M17.691 35.4007C15.3349 35.4007 12.9788 35.4013 10.6228 35.4C10.0761 35.3994 9.72817 34.9954 9.83382 34.4945C9.90025 34.1804 10.1584 33.9506 10.4785 33.924C10.5494 33.9183 10.6209 33.9196 10.6917 33.9196C15.364 33.9196 20.0369 33.9196 24.7092 33.9196C25.1653 33.9196 25.4405 34.0912 25.5424 34.4356C25.6885 34.9277 25.3507 35.3918 24.8294 35.3994C24.2916 35.4076 23.7545 35.4013 23.2167 35.4013C21.375 35.4007 19.5327 35.4007 17.691 35.4007Z" fill="#1F1E1F"/>
<path d="M17.6889 30.0442C15.3486 30.0442 13.0084 30.0449 10.6681 30.0436C10.174 30.0436 9.87792 29.8125 9.82161 29.3939C9.76594 28.9798 10.0652 28.6005 10.4802 28.5618C10.5429 28.5561 10.6068 28.5587 10.67 28.5587C15.3581 28.5587 20.0468 28.5587 24.7349 28.5587C25.1942 28.5587 25.4745 28.7607 25.5593 29.1495C25.6504 29.5674 25.3689 29.9765 24.9456 30.0322C24.8368 30.0468 24.7248 30.0442 24.6141 30.0442C22.3061 30.0449 19.9975 30.0442 17.6889 30.0442Z" fill="#1F1E1F"/>
<path d="M17.6687 24.6881C15.3209 24.6881 12.9724 24.6893 10.6245 24.6874C10.0678 24.6868 9.71666 24.2701 9.8394 23.7598C9.90646 23.4818 10.0874 23.3026 10.362 23.2336C10.4828 23.2032 10.6125 23.1968 10.7378 23.1968C15.3784 23.1949 20.0191 23.1949 24.6597 23.1962C24.7622 23.1962 24.866 23.2 24.9665 23.2177C25.3392 23.2848 25.6017 23.6135 25.5802 23.9776C25.5587 24.3525 25.2772 24.6469 24.902 24.6836C24.816 24.6919 24.728 24.6881 24.6414 24.6881C22.3176 24.6881 19.9931 24.6881 17.6687 24.6881Z" fill="#1F1E1F"/>
<path d="M7.41719 19.3293C6.76048 19.3236 6.2341 18.7872 6.23979 18.128C6.24549 17.4777 6.79464 16.9401 7.4444 16.9483C8.09858 16.9566 8.62496 17.4973 8.61864 18.1559C8.61294 18.8164 8.08213 19.335 7.41719 19.3293Z" fill="#1F1E1F"/>
<path d="M7.43014 30.0418C6.77027 30.0411 6.23946 29.5105 6.24072 28.8532C6.24199 28.1953 6.77407 27.6659 7.43268 27.6665C8.09571 27.6678 8.6202 28.1927 8.61956 28.8551C8.61893 29.5168 8.09192 30.0424 7.43014 30.0418Z" fill="#1F1E1F"/>
<path d="M7.42572 22.3101C8.0875 22.3082 8.61767 22.8331 8.61957 23.4929C8.62147 24.1553 8.09572 24.6859 7.43711 24.6878C6.77723 24.6897 6.24263 24.1604 6.24073 23.5043C6.23883 22.8445 6.76774 22.312 7.42572 22.3101Z" fill="#1F1E1F"/>
<path d="M7.42397 35.4001C6.76726 35.3969 6.23771 34.8612 6.24024 34.2033C6.24277 33.5472 6.77991 33.0172 7.43789 33.021C8.09776 33.0248 8.62224 33.5567 8.61908 34.2178C8.61592 34.8764 8.08321 35.4032 7.42397 35.4001Z" fill="#1F1E1F"/>
<path d="M20.7157 3.4994C20.7037 4.14339 20.1665 4.66074 19.5174 4.65441C18.8645 4.64807 18.3305 4.1035 18.3375 3.45064C18.3444 2.79651 18.8885 2.26397 19.5421 2.27156C20.2089 2.27916 20.7283 2.82311 20.7157 3.4994Z" fill="#1F1E1F"/>
</g>
<defs>
<clipPath id="clip0">
<rect width="48.7871" height="48.7871" fill="white"/>
</clipPath>
</defs>
</svg>
