<svg width="49" height="46" viewBox="0 0 49 46" fill="none" xmlns="http://www.w3.org/2000/svg">
<g clip-path="url(#clip0)">
<path d="M48.2912 27.3863C48.2912 23.0225 44.5549 19.3307 39.4049 18.092C39.1677 18.0336 38.9305 17.9828 38.6876 17.9357C38.439 17.8886 38.1866 17.8453 37.9323 17.8096C37.7824 18.0261 37.6211 18.235 37.4522 18.4402C35.2548 21.0966 31.7197 22.8229 27.7385 22.8229C26.9491 22.8229 26.1692 22.7551 25.4045 22.6196C25.1502 22.5763 24.8978 22.5236 24.6474 22.4633C24.4975 22.6591 24.3551 22.8606 24.2242 23.0658C24.0933 23.2672 23.9718 23.4705 23.8618 23.6795C23.2469 24.8222 22.9092 26.0742 22.9092 27.3863C22.9092 32.7668 28.5924 37.1269 35.6021 37.1269C37.3991 37.1269 39.1069 36.8351 40.6592 36.3192L47.2552 39.1827L45.4733 33.4991C47.2343 31.8293 48.2912 29.7038 48.2912 27.3863ZM46.1451 37.9533L40.9362 35.6905C40.847 35.6528 40.7521 35.634 40.6592 35.634C40.5852 35.634 40.5093 35.6453 40.439 35.6697C38.902 36.1818 37.2739 36.4416 35.6021 36.4416C28.9852 36.4416 23.6018 32.379 23.6018 27.3863C23.6018 26.1325 23.9415 24.9371 24.5563 23.8508C25.5943 24.0805 26.6588 24.1953 27.7385 24.1953C32.4426 24.1953 36.5888 22.0059 38.9893 18.7C43.961 19.8051 47.6005 23.2804 47.6005 27.3863C47.6005 29.444 46.6992 31.3887 44.9951 33.004C44.8054 33.1847 44.7352 33.4558 44.813 33.7043L46.1451 37.9533Z" fill="white"/>
<path d="M26.8564 19.502C26.9342 19.5133 27.0158 19.5208 27.1031 19.5208C27.4599 19.5208 27.7445 19.4154 27.9551 19.2064C28.0994 19.0633 28.1942 18.8901 28.2379 18.6849C27.754 18.9334 27.2929 19.2064 26.8564 19.502ZM46.2573 33.693C48.0183 31.8895 48.9823 29.6642 48.9823 27.3863C48.9823 22.772 45.1131 18.8449 39.7676 17.4782C39.5399 17.4198 39.3084 17.3652 39.0731 17.3163C38.834 17.2655 38.593 17.2203 38.3482 17.1826C38.2173 17.3972 38.0806 17.6062 37.9326 17.8095C37.7827 18.026 37.6214 18.235 37.4525 18.4402C37.7201 18.4703 37.9858 18.508 38.2476 18.5531C38.4981 18.5964 38.7448 18.6435 38.9896 18.7C43.9613 19.8051 47.6008 23.2803 47.6008 27.3863C47.6008 29.444 46.6995 31.3887 44.9954 33.004C44.8057 33.1847 44.7355 33.4558 44.8133 33.7043L46.1454 37.9533L40.9365 35.6904C40.8473 35.6528 40.7524 35.6339 40.6595 35.6339C40.5855 35.6339 40.5096 35.6452 40.4393 35.6697C38.9023 36.1818 37.2742 36.4416 35.6024 36.4416C28.9855 36.4416 23.6021 32.3789 23.6021 27.3863C23.6021 26.1325 23.9418 24.937 24.5566 23.8508C24.6742 23.6399 24.8033 23.4328 24.9437 23.2295C25.086 23.0224 25.2397 22.8172 25.4048 22.6196C25.1505 22.5763 24.8981 22.5235 24.6477 22.4633C24.4105 22.4087 24.1752 22.3466 23.9418 22.2769C23.7994 22.4708 23.6666 22.6685 23.5433 22.8699C23.418 23.0695 23.3023 23.2728 23.196 23.4799C22.566 24.6866 22.2188 26.0063 22.2188 27.3863C22.2188 33.1357 28.2227 37.8121 35.6024 37.8121C37.333 37.8121 39.02 37.5561 40.6234 37.0534L46.9784 39.8114C47.0676 39.851 47.1625 39.8698 47.2555 39.8698C47.4224 39.8698 47.5875 39.8095 47.7166 39.6947C47.9177 39.5159 47.9955 39.2372 47.9158 38.9793L46.2573 33.693Z" fill="#1F1E1F"/>
<path d="M30.3344 26.0117C28.9625 26.0117 27.8467 27.1187 27.8467 28.4817C27.8467 29.8428 28.9625 30.9517 30.3344 30.9517C31.7083 30.9517 32.824 29.8428 32.824 28.4817C32.824 27.1187 31.7083 26.0117 30.3344 26.0117ZM30.3344 29.5792C29.7253 29.5792 29.2281 29.086 29.2281 28.4817C29.2281 27.8755 29.7253 27.3841 30.3344 27.3841C30.9454 27.3841 31.4407 27.8755 31.4407 28.4817C31.4407 29.086 30.9454 29.5792 30.3344 29.5792Z" fill="#1F1E1F"/>
<path d="M35.6024 26.0117C34.2285 26.0117 33.1108 27.1187 33.1108 28.4817C33.1108 29.8428 34.2285 30.9517 35.6024 30.9517C36.9743 30.9517 38.0901 29.8428 38.0901 28.4817C38.0901 27.1187 36.9743 26.0117 35.6024 26.0117ZM35.6024 29.5792C34.9913 29.5792 34.4942 29.086 34.4942 28.4817C34.4942 27.8755 34.9913 27.3841 35.6024 27.3841C36.2115 27.3841 36.7068 27.8755 36.7068 28.4817C36.7068 29.086 36.2115 29.5792 35.6024 29.5792Z" fill="#1F1E1F"/>
<path d="M40.868 26.0117C39.4941 26.0117 38.3765 27.1187 38.3765 28.4817C38.3765 29.8428 39.4941 30.9517 40.868 30.9517C42.2399 30.9517 43.3576 29.8428 43.3576 28.4817C43.3576 27.1187 42.2399 26.0117 40.868 26.0117ZM40.868 29.5792C40.257 29.5792 39.7598 29.086 39.7598 28.4817C39.7598 27.8755 40.257 27.3841 40.868 27.3841C41.4771 27.3841 41.9743 27.8755 41.9743 28.4817C41.9743 29.086 41.4771 29.5792 40.868 29.5792Z" fill="#1F1E1F"/>
<path d="M18.5448 45.9956C16.5106 45.9956 14.4688 45.2803 12.6415 43.9248C9.77991 41.805 5.48947 34.043 5.3092 33.7155C5.12893 33.4237 0.500728 25.8575 0.0794647 22.3389C-0.263998 19.468 0.493138 16.8135 2.21045 14.8613C2.41539 14.6278 2.65069 14.3906 2.90307 14.1572C4.8424 12.3913 7.82729 11.0189 7.95443 10.9605C8.07588 10.8871 8.27892 10.8325 8.48575 10.8325C8.90133 10.8325 9.29033 11.0547 9.49717 11.4124L14.5144 20.029C14.6719 20.3001 14.7117 20.6126 14.6282 20.9138C14.5466 21.2113 14.3512 21.4598 14.0798 21.6141L13.9963 21.6631C13.5865 21.9154 12.8654 22.3276 11.8369 22.9C10.6604 23.5532 9.73436 23.7509 9.11196 23.7885C9.68123 25.0988 11.0551 27.5782 12.3416 29.6886C13.5485 31.863 15.0248 34.2802 15.8863 35.4305C16.2507 34.8827 16.8939 34.2106 18.0325 33.5423C19.3456 32.7704 19.9225 32.4617 20.1445 32.3487C20.1806 32.3186 20.2261 32.2847 20.2811 32.2546C20.8124 31.9515 21.5677 32.1473 21.8751 32.6838L26.8904 41.2986C27.2092 41.8502 27.0175 42.5599 26.4653 42.8818C26.4008 42.9308 23.7063 44.8096 21.1977 45.589C20.3267 45.8582 19.4348 45.9956 18.5448 45.9956ZM8.39847 12.2689C7.71344 12.6003 5.36613 13.775 3.84047 15.1663C3.62605 15.3639 3.4268 15.5654 3.25412 15.763C1.385 17.8847 1.24268 20.4225 1.45331 22.177C1.83852 25.4019 6.46103 32.953 6.50658 33.0302C6.5654 33.1356 10.8482 40.8844 13.4707 42.8272C15.7421 44.5103 18.3456 45.0374 20.784 44.2806C22.803 43.6518 25.0516 42.1796 25.5944 41.8144L20.7916 33.563C20.6474 33.6345 20.1179 33.9113 18.7384 34.7245C16.9357 35.7826 16.7953 36.7126 16.7934 36.722C16.763 36.9535 16.615 37.1682 16.4044 37.2679C16.1937 37.3696 15.9433 37.3696 15.744 37.2472C14.6472 36.577 11.9488 31.8216 11.1462 30.3776C10.3017 28.992 7.49901 24.2968 7.46296 23.0186C7.45727 22.7814 7.57492 22.5573 7.77416 22.4274C7.97341 22.2956 8.22579 22.2768 8.44211 22.3766C8.44591 22.3766 8.59961 22.4255 8.88045 22.4255C9.33018 22.4255 10.0892 22.3013 11.1632 21.7045C12.1405 21.1623 12.8293 20.7689 13.2126 20.5354L8.39847 12.2689Z" fill="#1F1E1F"/>
<path d="M24.4956 43.9926C24.2603 43.9926 24.0306 43.874 23.9016 43.6575L18.2487 34.2181C18.0533 33.8924 18.1614 33.4726 18.4897 33.2787C18.8161 33.0848 19.2431 33.1921 19.4366 33.5178L25.0895 42.9571C25.285 43.2828 25.1768 43.7026 24.8485 43.8966C24.7384 43.9624 24.617 43.9926 24.4956 43.9926Z" fill="#1F1E1F"/>
<path d="M11.8082 22.8058C11.5729 22.8058 11.3433 22.6872 11.2142 22.4707L5.56513 13.037C5.36968 12.7113 5.47784 12.2915 5.80612 12.0976C6.1325 11.9037 6.55756 12.011 6.75301 12.3367L12.4021 21.7703C12.5976 22.096 12.4894 22.5158 12.1611 22.7098C12.0492 22.7756 11.9277 22.8058 11.8082 22.8058Z" fill="#1F1E1F"/>
<path d="M27.9548 17.5457C28.1654 17.749 28.2717 18.0276 28.2717 18.3816C28.2717 18.4889 28.2603 18.5905 28.2375 18.6847C28.1939 18.8899 28.099 19.0631 27.9548 19.2061C27.7441 19.4151 27.4595 19.5205 27.1027 19.5205C27.0155 19.5205 26.9339 19.513 26.8561 19.5017C26.6265 19.4603 26.4348 19.3624 26.2811 19.2061C26.0762 18.9972 25.9756 18.7204 25.9756 18.3816C25.9756 18.0276 26.0762 17.749 26.2811 17.5457C26.486 17.3424 26.7593 17.2407 27.1027 17.2407C27.4595 17.2407 27.7441 17.3424 27.9548 17.5457Z" fill="white"/>
<path d="M31.0841 7.24062C31.2303 7.63408 31.3024 8.05202 31.3024 8.49819C31.3024 9.08745 31.2132 9.60139 31.0348 10.04C30.8564 10.4787 30.6325 10.8778 30.3612 11.2393C30.0917 11.5988 29.7995 11.9358 29.4902 12.2502C29.179 12.5646 28.8886 12.8959 28.6192 13.2423C28.3478 13.5906 28.1239 13.9671 27.9455 14.3719C27.7672 14.7785 27.678 15.2567 27.678 15.8064H26.3706C26.3573 15.7405 26.3516 15.669 26.3516 15.5918V15.3753C26.3516 14.8237 26.4332 14.3399 26.5983 13.922C26.7634 13.5021 26.9683 13.12 27.2131 12.7717C27.456 12.4234 27.7197 12.0996 28.0044 11.7984C28.289 11.4972 28.5528 11.1941 28.7976 10.8853C29.0423 10.5766 29.2454 10.2509 29.4105 9.90261C29.5756 9.55621 29.6591 9.15898 29.6591 8.71469C29.6591 8.11226 29.4826 7.6209 29.1334 7.24062C28.7843 6.86034 28.1998 6.67019 27.382 6.67019C26.9057 6.67019 26.4237 6.75303 25.936 6.91681C25.4464 7.0806 25.0233 7.27262 24.6684 7.49665L24.1333 6.27673C24.6343 5.9774 25.1618 5.73831 25.7178 5.56134C26.2719 5.38438 26.9588 5.2959 27.7767 5.2959C28.3573 5.2959 28.8697 5.37685 29.3118 5.54064C29.7539 5.70442 30.124 5.93033 30.4219 6.21837C30.7179 6.50829 30.938 6.84716 31.0841 7.24062Z" fill="white"/>
<path d="M27.7385 0.685547C20.7022 0.685547 15 5.79491 15 12.0978C15 14.8125 16.0607 17.3013 17.8274 19.2592L16.0399 25.918L22.6624 22.5632C22.9509 22.6743 23.245 22.7778 23.5429 22.8701C23.7668 22.9416 23.9945 23.0056 24.2241 23.0658C24.4613 23.1261 24.7004 23.1826 24.9433 23.2296C25.8428 23.4122 26.7783 23.5101 27.7385 23.5101C32.101 23.5101 35.9512 21.5466 38.2473 18.5533C38.401 18.3518 38.549 18.1466 38.6875 17.9358C38.8242 17.7324 38.9513 17.5272 39.0727 17.3164C39.9722 15.752 40.4807 13.9786 40.4807 12.0978C40.4807 5.79491 34.7766 0.685547 27.7385 0.685547ZM38.3479 17.1827C38.2169 17.3973 38.0803 17.6063 37.9323 17.8096C37.7824 18.0261 37.6211 18.2351 37.4522 18.4403C35.2548 21.0966 31.7196 22.823 27.7385 22.823C26.9491 22.823 26.1692 22.7552 25.4044 22.6197C25.1502 22.5764 24.8978 22.5237 24.6473 22.4634C24.4101 22.4088 24.1748 22.3467 23.9414 22.277C23.5942 22.1735 23.2507 22.0568 22.9129 21.925C22.7289 21.8535 22.5239 21.8629 22.3474 21.9513L17.1063 24.6077L18.4953 19.4362C18.5561 19.2122 18.4972 18.975 18.3435 18.8036C16.6073 16.8796 15.6907 14.5622 15.6907 12.0978C15.6907 6.18273 21.095 1.37081 27.7385 1.37081C34.3838 1.37081 39.79 6.18273 39.79 12.0978C39.79 13.9371 39.2682 15.6691 38.3479 17.1827Z" fill="white"/>
<path d="M27.7388 0C20.3325 0 14.3096 5.42564 14.3096 12.0976C14.3096 14.7445 15.2849 17.3349 17.0668 19.4359L15.3722 25.7407C15.3001 26.0043 15.3931 26.281 15.6056 26.4523C15.7309 26.5521 15.8846 26.603 16.0402 26.603C16.1464 26.603 16.2546 26.5804 16.3533 26.5295L22.7026 23.3103C22.8658 23.3705 23.0309 23.427 23.1959 23.4797C23.4161 23.5513 23.6381 23.6172 23.862 23.6793C24.0916 23.7414 24.3231 23.7979 24.5565 23.8506C25.5945 24.0803 26.659 24.1951 27.7388 24.1951C32.4429 24.1951 36.5891 22.0057 38.9895 18.6998C39.1337 18.5021 39.2723 18.2988 39.4051 18.0917C39.5322 17.8903 39.6537 17.687 39.7675 17.478C40.667 15.8571 41.1717 14.0291 41.1717 12.0976C41.1717 5.42564 35.145 0 27.7388 0ZM37.9326 17.8094C37.7827 18.0259 37.6214 18.2348 37.4525 18.44C35.2551 21.0964 31.7199 22.8227 27.7388 22.8227C26.9494 22.8227 26.1695 22.7549 25.4047 22.6194C25.1505 22.5761 24.8981 22.5234 24.6476 22.4631C24.4104 22.4085 24.1751 22.3464 23.9417 22.2768C23.5944 22.1732 23.251 22.0565 22.9132 21.9247C22.7291 21.8532 22.5242 21.8626 22.3477 21.9511L17.1066 24.6074L18.4956 19.4359C18.5564 19.2119 18.4975 18.9747 18.3438 18.8034C16.6075 16.8794 15.691 14.5619 15.691 12.0976C15.691 6.18244 21.0953 1.37053 27.7388 1.37053C34.3841 1.37053 39.7903 6.18244 39.7903 12.0976C39.7903 13.9369 39.2685 15.6688 38.3481 17.1824C38.2172 17.3971 38.0806 17.606 37.9326 17.8094Z" fill="#1F1E1F"/>
<path d="M27.955 17.5459C27.7444 17.3426 27.4598 17.241 27.103 17.241C26.7596 17.241 26.4863 17.3426 26.2814 17.5459C26.0764 17.7493 25.9759 18.0279 25.9759 18.3818C25.9759 18.7207 26.0764 18.9974 26.2814 19.2064C26.4351 19.3627 26.6267 19.4605 26.8563 19.502C26.9341 19.5133 27.0157 19.5208 27.103 19.5208C27.4598 19.5208 27.7444 19.4154 27.955 19.2064C28.0993 19.0633 28.1941 18.8901 28.2378 18.6849C28.2605 18.5908 28.2719 18.4891 28.2719 18.3818C28.2719 18.0279 28.1657 17.7493 27.955 17.5459ZM31.0841 7.24062C30.938 6.84716 30.7179 6.50829 30.4219 6.21837C30.124 5.93033 29.7539 5.70442 29.3118 5.54064C28.8697 5.37685 28.3573 5.2959 27.7767 5.2959C26.9588 5.2959 26.2719 5.38438 25.7178 5.56134C25.1618 5.73831 24.6343 5.9774 24.1333 6.27673L24.6684 7.49665C25.0233 7.27262 25.4464 7.0806 25.936 6.91681C26.4237 6.75303 26.9057 6.67019 27.382 6.67019C28.1998 6.67019 28.7843 6.86034 29.1334 7.24062C29.4826 7.6209 29.6591 8.11226 29.6591 8.71469C29.6591 9.15898 29.5756 9.55621 29.4105 9.90261C29.2454 10.2509 29.0423 10.5766 28.7976 10.8853C28.5528 11.1941 28.289 11.4972 28.0044 11.7984C27.7197 12.0996 27.456 12.4234 27.2131 12.7717C26.9683 13.12 26.7634 13.5021 26.5983 13.922C26.4332 14.3399 26.3516 14.8237 26.3516 15.3753V15.5918C26.3516 15.669 26.3573 15.7405 26.3706 15.8064H27.678C27.678 15.2567 27.7672 14.7785 27.9455 14.3719C28.1239 13.9671 28.3478 13.5906 28.6192 13.2423C28.8886 12.8959 29.179 12.5646 29.4902 12.2502C29.7995 11.9358 30.0917 11.5988 30.3612 11.2393C30.6325 10.8778 30.8564 10.4787 31.0348 10.04C31.2132 9.6014 31.3024 9.08745 31.3024 8.49819C31.3024 8.05202 31.2303 7.63408 31.0841 7.24062Z" fill="#1F1E1F"/>
</g>
<defs>
<clipPath id="clip0">
<rect width="48.9823" height="45.9956" fill="white"/>
</clipPath>
</defs>
</svg>
