<svg width="22" height="22" viewBox="0 0 22 22" fill="none" xmlns="http://www.w3.org/2000/svg">
<path d="M8.07333 9.53556C9.11593 11.3672 10.6328 12.8841 12.4644 13.9267L13.4467 12.5511C13.6046 12.3299 13.8382 12.1743 14.1031 12.1137C14.3681 12.0531 14.646 12.0917 14.8844 12.2222C16.4559 13.081 18.1913 13.5975 19.9767 13.7378C20.2553 13.7599 20.5154 13.8861 20.7051 14.0915C20.8947 14.2968 21 14.566 21 14.8456V19.8033C21.0001 20.0784 20.8981 20.3438 20.7137 20.548C20.5294 20.7522 20.2759 20.8808 20.0022 20.9089C19.4133 20.97 18.82 21 18.2222 21C8.71111 21 1 13.2889 1 3.77778C1 3.18 1.03 2.58667 1.09111 1.99778C1.11917 1.72411 1.24776 1.47058 1.45199 1.28626C1.65622 1.10194 1.92156 0.999941 2.19667 1H7.15444C7.43396 0.999965 7.70322 1.10528 7.90853 1.29495C8.11385 1.48461 8.24014 1.74469 8.26222 2.02333C8.40247 3.80866 8.91897 5.54409 9.77778 7.11556C9.90829 7.35396 9.9469 7.63193 9.8863 7.89688C9.82569 8.16183 9.67007 8.39538 9.44889 8.55333L8.07333 9.53556ZM5.27111 8.80556L7.38222 7.29778C6.78309 6.00455 6.37261 4.63205 6.16333 3.22222H3.23333C3.22667 3.40667 3.22333 3.59222 3.22333 3.77778C3.22222 12.0622 9.93778 18.7778 18.2222 18.7778C18.4078 18.7778 18.5933 18.7744 18.7778 18.7667V15.8367C17.368 15.6274 15.9955 15.2169 14.7022 14.6178L13.1944 16.7289C12.5874 16.493 11.9978 16.2145 11.43 15.8956L11.3656 15.8589C9.1862 14.6186 7.38142 12.8138 6.14111 10.6344L6.10444 10.57C5.78545 10.0022 5.50698 9.4126 5.27111 8.80556Z" fill="#333333" stroke="#F4F4F4" stroke-width="0.5"/>
</svg>
