<svg width="40" height="40" viewBox="0 0 40 40" fill="none" xmlns="http://www.w3.org/2000/svg">
<circle cx="20" cy="20" r="20" fill="#C1009B"/>
<path d="M23.2399 12.5508H16.5919C14.332 12.5508 12.5 14.3973 12.5 16.675V23.3754C12.5 25.6532 14.332 27.4997 16.5919 27.4997H23.2399C25.4998 27.4997 27.3318 25.6532 27.3318 23.3754V16.675C27.3318 14.3973 25.4998 12.5508 23.2399 12.5508ZM26.0154 23.3754C26.0154 24.9234 24.7648 26.1728 23.2399 26.1728H16.5919C15.0561 26.1728 13.8164 24.9124 13.8164 23.3754V16.675C13.8164 15.1381 15.067 13.8776 16.5919 13.8776H23.2399C24.7758 13.8776 26.0154 15.1381 26.0154 16.675V23.3754Z" fill="white"/>
<path d="M19.916 16.1777C17.8097 16.1777 16.0874 17.9026 16.0874 20.0255C16.0874 22.1484 17.7988 23.8844 19.916 23.8844C22.0223 23.8844 23.7447 22.1595 23.7447 20.0255C23.7447 17.9026 22.0223 16.1777 19.916 16.1777ZM19.916 22.5575C18.5338 22.5575 17.4038 21.4297 17.4038 20.0366C17.4148 18.6324 18.5338 17.5046 19.916 17.5046C21.2983 17.5046 22.4282 18.6324 22.4282 20.0255C22.4282 21.4187 21.2983 22.5575 19.916 22.5575Z" fill="white"/>
<path d="M23.898 15.0503C23.6457 15.0503 23.3934 15.1498 23.2178 15.3378C23.0423 15.5147 22.9326 15.769 22.9326 16.0233C22.9326 16.2776 23.0314 16.5319 23.2178 16.7088C23.3934 16.8857 23.6457 16.9963 23.898 16.9963C24.1503 16.9963 24.4027 16.8968 24.5782 16.7088C24.7537 16.5319 24.8634 16.2776 24.8634 16.0233C24.8634 15.769 24.7647 15.5147 24.5782 15.3378C24.4027 15.1498 24.1613 15.0503 23.898 15.0503Z" fill="white"/>
</svg>
