<svg width="40" height="40" viewBox="0 0 40 40" fill="none" xmlns="http://www.w3.org/2000/svg">
<path d="M40 20.0023C40 31.0489 31.0443 40 19.9977 40C8.95571 40 0 31.0443 0 20.0023C0 8.95571 8.95571 0 19.9977 0C31.0443 0 40 8.95571 40 20.0023Z" fill="#C0312E"/>
<path d="M28.285 12.75H12.2036C11.2561 12.75 10.4888 13.5221 10.4888 14.4648V24.7539C10.4888 25.7022 11.2618 26.4687 12.2036 26.4687H28.285C29.2246 26.4687 29.9999 25.7055 29.9999 24.7539V14.4648C29.9999 13.5238 29.2356 12.75 28.285 12.75ZM28.0449 13.8932C27.6945 14.2417 21.6651 20.2394 21.4569 20.4465C21.133 20.7704 20.7024 20.9487 20.2443 20.9487C19.7863 20.9487 19.3557 20.7704 19.0307 20.4454C18.8907 20.3061 12.9278 14.3747 12.4438 13.8932H28.0449ZM11.632 24.5212V14.6983L16.5722 19.6124L11.632 24.5212ZM12.4445 25.3255L17.3827 20.4187L18.2234 21.2549C18.7632 21.7947 19.4809 22.092 20.2443 22.092C21.0077 22.092 21.7255 21.7947 22.2642 21.2559L23.1059 20.4187L28.0442 25.3255H12.4445ZM28.8567 24.5212L23.9165 19.6124L28.8567 14.6983V24.5212Z" fill="white"/>
</svg>
