<svg width="40" height="40" viewBox="0 0 40 40" fill="none" xmlns="http://www.w3.org/2000/svg">
<circle cx="20" cy="20" r="20" fill="#0084C6"/>
<path d="M11.2364 19.9803C12.8377 19.0928 14.6251 18.3521 16.2952 17.6076C19.1684 16.3882 22.0531 15.1899 24.9668 14.0743C25.5336 13.8842 26.5523 13.6984 26.6522 14.5437C26.5975 15.7403 26.3725 16.9298 26.2182 18.1194C25.8265 20.7353 25.3737 23.3423 24.9323 25.9497C24.7802 26.8181 23.6989 27.2677 23.0071 26.712C21.3444 25.5819 19.669 24.4629 18.0275 23.3066C17.4898 22.7568 17.9885 21.9674 18.4686 21.5748C19.838 20.2168 21.2903 19.0632 22.5882 17.6351C22.9383 16.7843 21.9039 17.5013 21.5627 17.721C19.6879 19.0209 17.859 20.4002 15.8825 21.5427C14.8728 22.1019 13.6961 21.624 12.6869 21.3119C11.7821 20.935 10.4561 20.5551 11.2363 19.9804L11.2364 19.9803Z" fill="white"/>
</svg>
