<svg width="40" height="40" viewBox="0 0 40 40" fill="none" xmlns="http://www.w3.org/2000/svg">
<path d="M40 20.0023C40 31.0489 31.0443 40 19.9977 40C8.95571 40 0 31.0443 0 20.0023C0 8.95571 8.95571 0 19.9977 0C31.0443 0 40 8.95571 40 20.0023Z" fill="#48A91F"/>
<path fill-rule="evenodd" clip-rule="evenodd" d="M27.9936 19.5951C27.8881 15.3839 24.4156 12.001 20.1469 12.001C15.9294 12.001 12.4889 15.304 12.3034 19.4512C12.3003 19.5663 12.2971 19.6782 12.2971 19.7933C12.2971 21.2674 12.7095 22.6423 13.4226 23.819L12.0093 27.9981L16.3579 26.6168C17.4834 27.2339 18.7752 27.5888 20.1501 27.5888C24.486 27.5888 28 24.1004 28 19.7965C27.9968 19.7262 27.9968 19.6622 27.9936 19.5951ZM20.1469 26.3418C18.8072 26.3418 17.5602 25.9453 16.5146 25.2579L13.9789 26.0668L14.8007 23.6335C14.0109 22.5528 13.5441 21.2258 13.5441 19.7933C13.5441 19.5791 13.5537 19.368 13.5761 19.157C13.899 15.8412 16.7224 13.2448 20.1437 13.2448C23.6098 13.2448 26.4588 15.9083 26.7242 19.2849C26.7402 19.4544 26.7466 19.6238 26.7466 19.7965C26.7466 23.4065 23.7857 26.3418 20.1469 26.3418Z" fill="white"/>
<path fill-rule="evenodd" clip-rule="evenodd" d="M23.7442 21.3666C23.5492 21.2707 22.6059 20.8071 22.43 20.7463C22.2542 20.6792 22.1263 20.6504 21.9952 20.8422C21.8673 21.0341 21.4964 21.4626 21.3845 21.5873C21.2693 21.7152 21.1606 21.7312 20.9656 21.6352C20.7737 21.5393 20.1534 21.3411 19.418 20.6856C18.8488 20.1836 18.4587 19.5569 18.35 19.365C18.2381 19.1732 18.3404 19.0708 18.4332 18.9749C18.5227 18.8854 18.625 18.7511 18.7241 18.6424C18.7497 18.6104 18.7721 18.5784 18.7945 18.5496C18.8392 18.4793 18.8712 18.4121 18.916 18.3226C18.9831 18.1947 18.948 18.0828 18.9 17.9869C18.852 17.891 18.4651 16.9509 18.3053 16.5672C18.1486 16.1835 17.9855 16.2506 17.8704 16.2506C17.7585 16.2506 17.6306 16.2314 17.5027 16.2314C17.3748 16.2314 17.1637 16.2794 16.9879 16.4713C16.812 16.6631 16.3164 17.1267 16.3164 18.0668C16.3164 18.2874 16.358 18.5081 16.4155 18.7191C16.6106 19.3906 17.0295 19.9469 17.103 20.0429C17.1989 20.1676 18.4332 22.1596 20.39 22.927C22.3501 23.688 22.3501 23.4354 22.7018 23.4003C23.0536 23.3715 23.8401 22.9398 24 22.4922C24.1631 22.0477 24.1631 21.664 24.1151 21.5841C24.064 21.5105 23.9361 21.4626 23.7442 21.3666Z" fill="white"/>
</svg>
